<mxfile host="Electron" modified="2023-11-22T09:13:24.824Z" agent="Mozilla/5.0 (Windows NT 10.0; Win64; x64) AppleWebKit/537.36 (KHTML, like Gecko) draw.io/21.2.1 Chrome/112.0.5615.87 Electron/24.1.2 Safari/537.36" etag="plgoaR_DHvfUlLmWpBx0" version="21.2.1" type="device">
  <diagram name="第 1 页" id="p564dUlnIFcZEKCv4rtF">
    <mxGraphModel dx="1418" dy="820" grid="1" gridSize="10" guides="1" tooltips="1" connect="1" arrows="1" fold="1" page="1" pageScale="1" pageWidth="827" pageHeight="1169" math="0" shadow="0">
      <root>
        <mxCell id="0" />
        <mxCell id="1" parent="0" />
        <mxCell id="jPVYmsx-2kozmc8zEE3v-1" value="" style="shape=cylinder3;whiteSpace=wrap;html=1;boundedLbl=1;backgroundOutline=1;size=15;fillColor=#CFF0FC;shadow=0;strokeColor=#6c8ebf;" vertex="1" parent="1">
          <mxGeometry x="310" y="270" width="190" height="260" as="geometry" />
        </mxCell>
        <mxCell id="jPVYmsx-2kozmc8zEE3v-3" value="数据" style="text;html=1;strokeColor=none;fillColor=none;align=center;verticalAlign=middle;whiteSpace=wrap;rounded=0;fontSize=22;" vertex="1" parent="1">
          <mxGeometry x="350" y="260" width="100" height="50" as="geometry" />
        </mxCell>
      </root>
    </mxGraphModel>
  </diagram>
</mxfile>
